Coordinates
version=1
nRows=9
nColumns=24
inDegrees=yes

Units are S.I. units (second, meters, Newtons, ...)
Angles are in degrees.

endheader
time	pelvis_tilt	pelvis_list	pelvis_rotation	pelvis_tx	pelvis_ty	pelvis_tz	hip_flexion_r	hip_adduction_r	hip_rotation_r	knee_angle_r	ankle_angle_r	subtalar_angle_r	mtp_angle_r	hip_flexion_l	hip_adduction_l	hip_rotation_l	knee_angle_l	ankle_angle_l	subtalar_angle_l	mtp_angle_l	lumbar_extension	lumbar_bending	lumbar_rotation
      3.50500000	    -19.80712251	     11.52524638	     -5.18381109	     -2.28189674	     -0.03959433	     -0.25199750	     21.72639280	     -9.37812055	      4.07468009	    -62.05805117	    -37.71958402	    -15.91572970	     10.27064804	     42.00705072	     15.11316807	      5.27770478	    -26.57787639	     13.37228522	     -3.67305514	    -74.04861571	     13.05797912	    -10.34268395	      8.47768692
      3.51000000	    -19.79530463	     11.55121442	     -5.24976529	     -2.27447197	     -0.03787315	     -0.25207484	     22.96830254	     -9.07083862	      4.41874965	    -63.38193890	    -36.21642450	    -17.55514884	      6.60956251	     41.07958581	     15.15214336	      5.32546757	    -25.96057059	     13.83625948	     -3.40794471	    -74.23240146	     13.12015342	    -10.29207482	      8.31968741
      3.51500000	    -19.75850842	     11.55538715	     -5.31497673	     -2.26704527	     -0.03609296	     -0.25211072	     24.16279355	     -8.73647039	      4.73374406	    -64.59622125	    -34.67823052	    -18.97781071	      2.62754811	     40.09952561	     15.17728339	      5.41211897	    -25.30058650	     14.28349762	     -3.17375203	    -74.58862636	     13.15804439	    -10.22693001	      8.16497536
      3.52000000	    -19.71761603	     11.46285225	     -5.32867097	     -2.25966129	     -0.03428454	     -0.25214446	     25.28922681	     -8.31695373	      4.93429823	    -65.64711700	    -33.31241388	    -20.37553276	     -1.15105599	     39.11105404	     15.13875314	      5.53507548	    -24.67136583	     14.74014771	     -2.86817563	    -74.89238145	     13.16228619	    -10.08523182	      7.93959455
      3.52500000	    -19.62039782	     11.49266563	     -5.43186880	     -2.25217922	     -0.03237984	     -0.25212608	     26.39970437	     -8.00619623	      5.27707864	    -66.66989307	    -31.51743026	    -21.04054021	     -5.59361164	     37.96496075	     15.20726523	      5.81701667	    -23.80751738	     14.96918453	     -2.94685589	    -75.27198010	     13.15547019	    -10.04616801	      7.83587480
      3.53000000	    -19.58359912	     11.38914471	     -5.44463682	     -2.24484729	     -0.03058509	     -0.25211833	     27.51159294	     -7.58520741	      5.43657897	    -67.53647388	    -30.05169022	    -21.87173859	     -9.49463003	     36.93119191	     15.17017407	      6.07265470	    -23.07598230	     15.26215512	     -2.82295439	    -75.47393153	     13.15994748	     -9.90127218	      7.62737726
      3.53500000	    -19.51130442	     11.29532543	     -5.51173318	     -2.23738120	     -0.02868638	     -0.25203388	     28.55074029	     -7.15754899	      5.68107753	    -68.26775381	    -28.48413332	    -22.21974065	    -12.95845994	     35.79033311	     15.12363889	      6.36876128	    -22.21147974	     15.41395716	     -2.84985320	    -75.53174164	     13.16611283	     -9.75632504	      7.47975034
      3.54000000	    -19.40331436	     11.12057846	     -5.49993721	     -2.23001128	     -0.02676777	     -0.25214339	     29.47453260	     -6.71784020	      5.86861172	    -68.81659210	    -27.28713013	    -22.38467467	    -14.25472092	     34.59523451	     15.07458210	      6.86234540	    -21.34655597	     15.48834035	     -2.98124824	    -75.45964575	     13.07967870	     -9.54526709	      7.21672474
      3.54500000	    -19.41791457	     10.98947546	     -5.55355837	     -2.22266502	     -0.02501401	     -0.25212279	     30.54578826	     -6.26862576	      6.15691492	    -69.25773655	    -26.39797591	    -22.51510207	    -14.30223958	     33.53261953	     14.99113791	      7.24958871	    -20.43417727	     15.48119015	     -3.17046305	    -75.44495179	     13.15760237	     -9.35421477	      7.09723905
